<?xml version="1.0" encoding="UTF-8" standalone="no"?>
<svg
   height="14.894249"
   viewBox="0 -960 205.75996 595.76996"
   width="5.1439991"
   fill="undefined"
   version="1.1"
   id="svg1"
   xmlns="http://www.w3.org/2000/svg"
   xmlns:svg="http://www.w3.org/2000/svg">
  <defs
     id="defs1" />
  <path
     d="m 102.75996,-843.45998 q -24.189993,0 -41.169993,-17.1 -16.98,-17.1 -16.98,-41.29 0,-24.18 17.1,-41.17 17.1,-16.98 41.289993,-16.98 24.19,0 41.17,17.1 16.98,17.1 16.98,41.29 0,24.19 -17.1,41.17 -17.1,16.98 -41.29,16.98 z m -62.759993,479.23 v -196.34 H -3.2946339e-5 v -174.43 q 0,-25.94 18.469999946339,-44.41 18.47,-18.47 44.41,-18.47 h 79.999993 q 25.94,0 44.41,18.47 18.47,18.47 18.47,44.41 v 174.43 h -40 v 196.34 z"
     id="path1"
     style="fill:#ffffff" />
</svg>
