<?xml version="1.0" encoding="UTF-8" standalone="no"?>
<svg
   height="14.596001"
   viewBox="0 -960 744.33998 583.84003"
   width="18.6085"
   fill="undefined"
   version="1.1"
   id="svg1"
   xmlns="http://www.w3.org/2000/svg"
   xmlns:svg="http://www.w3.org/2000/svg">
  <defs
     id="defs1" />
  <path
     d="m 688.38,-785.66002 v -106.07 q 0,-4.62 -3.84,-8.47 -3.85,-3.84 -8.47,-3.84 H 569.5 v -55.96 h 106.64 q 28.37,0 48.29,19.91 19.91,19.92 19.91,48.29 v 106.14 z m -688.3800019877428,0 v -106.14 q 0,-28.37 19.9099999877428,-48.29 19.92,-19.91 48.29,-19.91 H 174.34 v 55.96 H 68.269998 q -4.62,0 -8.47,3.84 -3.84,3.85 -3.84,8.47 v 106.07 z M 569.5,-376.16002 v -55.96 h 106.57 q 4.62,0 8.47,-3.84 3.84,-3.85 3.84,-8.47 v -106.07 h 55.96 v 106.14 q 0,28.37 -19.91,48.29 -19.92,19.91 -48.29,19.91 z m -501.300002,0 q -28.37,0 -48.29,-19.91 -19.9099999877429,-19.92 -19.9099999877429,-48.29 v -106.14 H 55.959998 v 106.07 q 0,4.62 3.84,8.47 3.85,3.84 8.47,3.84 H 174.34 v 55.96 z m 80.640002,-148.84 v -286.16 H 595.5 v 286.16 z m 55.96,-55.96 h 334.74 v -174.24 H 204.8 Z m 0,0 v -174.24 z"
     id="path1" />
</svg>
