<?xml version="1.0" encoding="UTF-8" standalone="no"?>
<svg
   height="8.9432621"
   viewBox="0 -960 605.62569 357.73048"
   width="15.140642"
   fill="undefined"
   version="1.1"
   id="svg1"
   xmlns="http://www.w3.org/2000/svg"
   xmlns:svg="http://www.w3.org/2000/svg">
  <defs
     id="defs1" />
  <path
     d="m 26.939607,-665.10009 q -11.30145,0 -19.1185601,-7.86051 Q -2.0542028e-6,-680.81717 -2.0542028e-6,-692.00814 V -869.2169 q 0,-11.19097 7.8210489542028,-19.04753 7.8171101,-7.86051 19.1185601,-7.86051 H 204.11681 q 11.19097,0 19.05148,7.86051 7.85656,7.85656 7.85656,19.0791 v 72.55978 l 53.95421,-53.9542 v 139.93447 l -53.95421,-53.95421 v 72.55979 q 0,11.22253 -7.85656,19.0791 -7.86051,7.86051 -19.05148,7.86051 z m 0,-22.08204 H 204.08524 q 2.04799,0 3.45278,-1.36533 1.40479,-1.36533 1.40479,-3.49224 v -177.14563 q 0,-2.12691 -1.40479,-3.49224 -1.40479,-1.36533 -3.45278,-1.36533 H 26.939607 q -2.12297,0 -3.49224,1.36533 -1.36533,1.36533 -1.36533,3.49224 v 177.14563 q 0,2.12691 1.36533,3.49224 1.36927,1.36533 3.49224,1.36533 z m -4.85757,0 V -874.0429 Z"
     id="path1"
     style="fill-opacity:1;stroke-width:0.394604" />
  <path
     style="display:inline;fill-opacity:1"
     d="m 702.5957,-715.34961 c -101.6263,43.55404 -203.2526,87.10807 -304.8789,130.66211 0,32.13542 0,64.27083 0,96.40625 101.6263,43.55404 203.2526,87.10807 304.8789,130.66211 0,-119.24349 0,-238.48698 0,-357.73047 z m -24.8789,37.73047 c 0,94.08984 0,188.17969 0,282.26953 -85.04037,-36.44596 -170.08073,-72.89193 -255.1211,-109.33789 0,-21.19792 0,-42.39583 0,-63.59375 85.04037,-36.44596 170.08073,-72.89193 255.1211,-109.33789 z"
     id="path4-4"
     transform="translate(-96.969993,-244.65038)" />
</svg>
