<?xml version="1.0" encoding="UTF-8" standalone="no"?>
<svg
   height="16.596001"
   viewBox="0 -960 715.96909 663.84003"
   width="17.899227"
   fill="undefined"
   version="1.1"
   id="svg1"
   xmlns="http://www.w3.org/2000/svg"
   xmlns:svg="http://www.w3.org/2000/svg">
  <defs
     id="defs1" />
  <path
     d="m 652.57,-711.73 h -57.86 c -17.62667,-56.16 -50.25333,-102.25 -97.88,-138.27 -47.62,-36.02667 -102.59,-54.04 -164.91,-54.04 -76.72,0 -141.89333,26.81333 -195.52,80.44 -53.626671,53.62667 -80.440001,118.8 -80.440001,195.52 0,52.50667 13.22333,100.14667 39.67,142.92 26.453331,42.77333 61.243331,75.62 104.370001,98.54 v -125.5 h 55.96 v 215.96 H 39.999999 v -55.96 H 153.23 C 107.35667,-381.28 70.349999,-419.98667 42.209999,-468.24 14.069999,-516.49333 -9.4033556e-7,-569.77333 -9.4033556e-7,-628.08 -9.4033556e-7,-674.1 8.6866691,-717.20667 26.059999,-757.4 c 17.36667,-40.19333 41.08333,-75.32333 71.15,-105.39 C 127.27667,-892.85667 162.43,-916.57333 202.67,-933.94 242.91667,-951.31333 286,-960 331.92,-960 c 77.66667,0 145.92333,23.45333 204.77,70.36 58.84667,46.91333 97.47333,106.21667 115.88,177.91 z"
     id="path1"
     style="display:inline;fill-opacity:1" />
  <path
     d="m 522.49825,-364.57688 q 35.13397,0 59.46348,-24.27748 24.32952,-24.2723 24.32952,-59.5155 0,-35.03514 -24.32952,-59.35944 -24.32951,-24.32951 -59.46348,-24.32951 -35.13395,0 -59.41144,24.32951 -24.2775,24.3243 -24.2775,59.35944 0,35.2432 24.2775,59.5155 24.27749,24.27748 59.41144,24.27748 z m -0.078,-29.1101 q -23.16948,0 -38.83774,-15.73589 -15.66306,-15.7359 -15.66306,-38.84295 0,-23.10186 15.66827,-38.89498 15.67346,-15.78792 38.85335,-15.78792 23.18508,0 38.96259,15.78792 15.77751,15.79312 15.77751,38.89498 0,23.10705 -15.79311,38.84295 -15.79312,15.73589 -38.96781,15.73589 z m -157.92595,97.43249 q -14.74752,0 -25.10981,-10.35707 -10.35707,-10.36229 -10.35707,-25.12541 v -233.00568 q 0,-14.76313 10.35707,-25.12541 10.36229,-10.35707 25.15663,-10.35707 h 63.5418 l 37.70373,-41.35551 h 113.4805 l 37.64651,41.35551 h 63.54179 q 14.7943,0 25.15661,10.35707 10.35704,10.36228 10.35704,25.12541 v 233.00568 q 0,14.76312 -10.35704,25.12541 -10.36231,10.35707 -25.10977,10.35707 z m 0.0467,-29.1101 h 315.9143 q 2.80385,0 4.60371,-1.79988 1.79995,-1.79986 1.79995,-4.60372 v -232.94325 q 0,-2.70501 -1.79995,-4.55171 -1.79986,-1.85188 -4.60371,-1.85188 h -76.45298 l -37.71413,-41.3555 h -87.44995 l -37.67252,41.3555 h -76.6247 q -2.80385,0 -4.60372,1.85188 -1.79988,1.8467 -1.79988,4.55171 v 232.94325 q 0,2.80386 1.79988,4.60372 1.79987,1.79988 4.60372,1.79988 z m 157.95718,-123.00527 z"
     id="path1-5"
     style="display:inline;fill-opacity:1;stroke-width:0.520194" />
</svg>
